<svg width="732" height="74" viewBox="0 0 732 74" fill="none" xmlns="http://www.w3.org/2000/svg">
<path d="M55.4062 50.4414C54.5273 57.9609 51.7441 63.7715 47.0566 67.873C42.4017 71.9421 36.2005 73.9766 28.4531 73.9766C20.0547 73.9766 13.3164 70.9655 8.23828 64.9434C3.19271 58.9212 0.669922 50.8646 0.669922 40.7734V33.9375C0.669922 27.3294 1.8418 21.5189 4.18555 16.5059C6.56185 11.4928 9.91471 7.65169 14.2441 4.98242C18.5736 2.2806 23.5866 0.929688 29.2832 0.929688C36.8353 0.929688 42.89 3.04557 47.4473 7.27734C52.0046 11.4766 54.6576 17.3034 55.4062 24.7578H45.9824C45.1686 19.0938 43.3945 14.9922 40.6602 12.4531C37.9583 9.91406 34.166 8.64453 29.2832 8.64453C23.2936 8.64453 18.5898 10.8581 15.1719 15.2852C11.7865 19.7122 10.0938 26.0111 10.0938 34.1816V41.0664C10.0938 48.7812 11.7051 54.9173 14.9277 59.4746C18.1504 64.0319 22.6589 66.3105 28.4531 66.3105C33.6615 66.3105 37.6491 65.1387 40.416 62.7949C43.2155 60.4186 45.071 56.3008 45.9824 50.4414H55.4062ZM188.121 73H178.697L142.906 18.2148V73H133.482V1.90625H142.906L178.795 56.9355V1.90625H188.121V73ZM312.779 54.4453H282.994L276.305 73H266.637L293.785 1.90625H301.988L329.186 73H319.566L312.779 54.4453ZM285.826 46.7305H309.996L297.887 13.4785L285.826 46.7305ZM468.883 1.90625V50.2461C468.85 56.9518 466.734 62.4368 462.535 66.7012C458.368 70.9655 452.704 73.3581 445.543 73.8789L443.053 73.9766C435.273 73.9766 429.072 71.877 424.449 67.6777C419.827 63.4785 417.483 57.7005 417.418 50.3438V1.90625H426.695V50.0508C426.695 55.194 428.111 59.1979 430.943 62.0625C433.775 64.8945 437.812 66.3105 443.053 66.3105C448.359 66.3105 452.411 64.8945 455.211 62.0625C458.043 59.2305 459.459 55.2428 459.459 50.0996V1.90625H468.883ZM584.557 54.4453H554.771L548.082 73H538.414L565.562 1.90625H573.766L600.963 73H591.344L584.557 54.4453ZM557.604 46.7305H581.773L569.664 13.4785L557.604 46.7305ZM715.416 54.4453H685.631L678.941 73H669.273L696.422 1.90625H704.625L731.822 73H722.203L715.416 54.4453ZM688.463 46.7305H712.633L700.523 13.4785L688.463 46.7305Z" fill="#8E0202"/>
<path d="M107.506 54.4453H77.7207L71.0312 73H61.3633L88.5117 1.90625H96.7148L123.912 73H114.293L107.506 54.4453ZM80.5527 46.7305H104.723L92.6133 13.4785L80.5527 46.7305ZM259.459 39.748C259.459 46.7142 258.287 52.8014 255.943 58.0098C253.6 63.1855 250.279 67.1406 245.982 69.875C241.686 72.6094 236.673 73.9766 230.943 73.9766C225.344 73.9766 220.38 72.6094 216.051 69.875C211.721 67.1081 208.352 63.1855 205.943 58.1074C203.567 52.9967 202.346 47.0885 202.281 40.3828V35.2559C202.281 28.4199 203.469 22.3815 205.846 17.1406C208.222 11.8997 211.575 7.89583 215.904 5.12891C220.266 2.32943 225.247 0.929688 230.846 0.929688C236.542 0.929688 241.555 2.31315 245.885 5.08008C250.247 7.81445 253.6 11.8021 255.943 17.043C258.287 22.2513 259.459 28.3223 259.459 35.2559V39.748ZM250.133 35.1582C250.133 26.7272 248.44 20.2656 245.055 15.7734C241.669 11.2487 236.933 8.98633 230.846 8.98633C224.921 8.98633 220.25 11.2487 216.832 15.7734C213.447 20.2656 211.705 26.5156 211.607 34.5234V39.748C211.607 47.9186 213.316 54.3477 216.734 59.0352C220.185 63.6901 224.921 66.0176 230.943 66.0176C236.998 66.0176 241.686 63.8203 245.006 59.4258C248.326 54.9987 250.035 48.6673 250.133 40.4316V35.1582ZM402.77 41.6035H372.936V73H363.561V1.90625H407.604V9.62109H372.936V33.9375H402.77V41.6035ZM509.752 44.2402H493.053V73H483.629V1.90625H507.164C515.172 1.90625 521.324 3.72917 525.621 7.375C529.951 11.0208 532.115 16.3268 532.115 23.293C532.115 27.7201 530.911 31.5775 528.502 34.8652C526.126 38.153 522.805 40.6107 518.541 42.2383L535.24 72.4141V73H525.182L509.752 44.2402ZM493.053 36.5742H507.457C512.112 36.5742 515.807 35.3698 518.541 32.9609C521.308 30.5521 522.691 27.3294 522.691 23.293C522.691 18.8984 521.373 15.5293 518.736 13.1855C516.132 10.8418 512.356 9.65365 507.408 9.62109H493.053V36.5742ZM610.533 73V1.90625H630.602C636.786 1.90625 642.255 3.27344 647.008 6.00781C651.76 8.74219 655.423 12.6322 657.994 17.6777C660.598 22.7233 661.917 28.5176 661.949 35.0605V39.6016C661.949 46.3073 660.647 52.1829 658.043 57.2285C655.471 62.2741 651.777 66.1478 646.959 68.8496C642.174 71.5514 636.591 72.9349 630.211 73H610.533ZM619.908 9.62109V65.334H629.771C636.998 65.334 642.613 63.0879 646.617 58.5957C650.654 54.1035 652.672 47.707 652.672 39.4062V35.2559C652.672 27.1829 650.768 20.9167 646.959 16.457C643.183 11.9648 637.812 9.6862 630.846 9.62109H619.908Z" fill="black"/>
</svg>
